<svg width="118" height="83" viewBox="0 0 118 83" fill="none" xmlns="http://www.w3.org/2000/svg">
<path d="M111.512 12.2873C112.297 9.86624 110.756 7.50259 107.426 6.46909C106.094 5.95129 104.653 5.77546 103.236 5.95766C101.818 6.13987 100.469 6.6743 99.311 7.51216L96 3.43556C99.4833 0.937928 104.019 0.210655 109.397 1.96187C115.751 4.0193 119.043 8.28728 117.436 13.2634C115.148 20.297 107.55 18.5553 105.895 23.6463L100.412 21.8664C102.498 15.4644 110.105 16.6031 111.512 12.2873ZM97.4833 28.5554C97.6901 27.8678 98.0969 27.2574 98.6519 26.8018C99.2069 26.3462 99.8849 26.0661 100.6 25.9971C101.314 25.9281 102.033 26.0734 102.665 26.4144C103.297 26.7554 103.813 27.2768 104.148 27.912C104.482 28.5473 104.62 29.2678 104.544 29.9818C104.468 30.6957 104.181 31.3708 103.719 31.9211C103.258 32.4714 102.644 32.872 101.954 33.0719C101.264 33.2718 100.531 33.2619 99.8469 33.0435C99.393 32.9182 98.9693 32.7019 98.6016 32.4077C98.2339 32.1136 97.9298 31.7478 97.7078 31.3325C97.4858 30.9172 97.3506 30.4611 97.3104 29.9919C97.2701 29.5227 97.3257 29.0503 97.4737 28.6033L97.4833 28.5554Z" fill="#407BFF"/>
<path d="M0.320713 20.099C0.118924 18.8507 0.519283 17.5805 1.4004 16.6735L16.2578 1.3798C17.105 0.507738 18.3028 0.0683308 19.513 0.185692L80.3648 6.08718C82.0696 6.25251 83.4799 7.48491 83.8723 9.15215L93.1142 48.4218C93.5297 50.1875 92.7052 52.0117 91.1052 52.8664L64.6396 67.0034C63.6866 67.5124 62.5681 67.6143 61.5388 67.2858L47.82 62.9076C46.3418 62.4359 44.724 62.8616 43.6695 64L40.2927 67.6453C39.1787 68.8478 39.2154 70.7161 40.3758 71.874L41.5012 72.997C42.182 73.6764 42.1237 74.796 41.376 75.401L39.3373 77.0506C38.2151 77.9585 36.7046 76.5521 37.5303 75.3681C37.9445 74.7741 37.7673 73.9535 37.145 73.5833L33.9527 71.6842C32.1629 70.6194 31.4895 68.3595 32.4047 66.4887L33.3618 64.5324C34.4145 62.3805 33.3524 59.792 31.0916 58.9997L7.38485 50.6919C6.00072 50.2068 4.99305 49.0031 4.75901 47.5553L0.320713 20.099Z" fill="#407BFF"/>
<g opacity="0.7">
<path d="M0.320713 20.099C0.118924 18.8507 0.519283 17.5805 1.4004 16.6735L16.2578 1.3798C17.105 0.507738 18.3028 0.0683308 19.513 0.185692L80.3648 6.08718C82.0696 6.25251 83.4799 7.48491 83.8723 9.15215L93.1142 48.4218C93.5297 50.1875 92.7052 52.0117 91.1052 52.8664L64.6396 67.0034C63.6866 67.5124 62.5681 67.6143 61.5388 67.2858L47.82 62.9076C46.3418 62.4359 44.724 62.8616 43.6695 64L40.2927 67.6453C39.1787 68.8478 39.2154 70.7161 40.3758 71.874L41.5012 72.997C42.182 73.6764 42.1237 74.796 41.376 75.401L39.3373 77.0506C38.2151 77.9585 36.7046 76.5521 37.5303 75.3681C37.9445 74.7741 37.7673 73.9535 37.145 73.5833L33.9527 71.6842C32.1629 70.6194 31.4895 68.3595 32.4047 66.4887L33.3618 64.5324C34.4145 62.3805 33.3524 59.792 31.0916 58.9997L7.38485 50.6919C6.00072 50.2068 4.99305 49.0031 4.75901 47.5553L0.320713 20.099Z" fill="white"/>
</g>
<path d="M52.6986 55.0236C50.1697 55.0305 47.6659 54.5226 45.3397 53.5307C44.0949 53.0588 42.9822 52.294 42.0956 51.301C41.4375 50.3887 41.0131 49.3289 40.8596 48.2144C40.7061 47.1 40.8282 45.9649 41.2152 44.9086H40.9281C38.9071 45.1491 36.8578 44.9232 34.9377 44.2483C34.3443 44.5737 33.7606 44.8608 33.2056 45.1191C33.6218 45.5947 33.9845 46.1146 34.2869 46.6694C34.5831 47.0899 34.7734 47.5757 34.8417 48.0855C34.9101 48.5953 34.8543 49.114 34.6793 49.5977C34.4349 50.1171 34.034 50.5468 33.5328 50.8266C33.0316 51.1064 32.4553 51.2221 31.885 51.1575C29.684 51.0809 26.6505 49.3776 24.928 47.6933L23.9232 47.789C20.9508 48.0586 17.9701 47.3713 15.416 45.8273C13.7996 44.7142 12.4475 43.2596 11.4553 41.5663C10.4632 39.873 9.85517 37.9824 9.67427 36.0282C9.35241 32.1545 10.1355 28.2689 11.9327 24.8223C12.4301 23.8096 12.9893 22.8285 13.6073 21.8845C12.7637 21.894 11.9203 21.8557 11.081 21.7697C10.7976 21.7722 10.5178 21.7056 10.266 21.5755C10.0142 21.4454 9.79793 21.2558 9.63599 21.0232C9.27235 20.3151 9.74125 19.4921 10.8322 18.9275C14.3145 17.1172 17.9032 15.5194 21.5787 14.1428C22.1529 13.7887 22.7462 13.4729 23.349 13.1858C25.851 11.9608 28.5766 11.2593 31.3591 11.1244C34.1415 10.9895 36.9223 11.4239 39.531 12.4012C39.9808 12.583 40.4114 12.7744 40.842 12.9945C43.202 12.3102 45.611 11.8079 48.0478 11.4921C54.1723 10.578 60.4138 10.8181 66.4499 12.2002C72.7179 13.7504 76.0193 16.449 76.4787 20.4395C76.871 23.6836 75.2347 26.1812 73.0911 28.2482C73.8011 29.251 74.4101 30.3216 74.9093 31.4444C75.4595 31.5512 75.9979 31.7114 76.517 31.9229C79.0095 32.9743 81.0219 34.9151 82.1629 37.3679C83.2634 39.6741 83.7993 43.1096 81.9907 45.7699C80.6813 47.5028 78.8334 48.7517 76.7371 49.3201C74.4239 50.1072 71.9937 50.4955 69.5504 50.4685C68.0094 50.504 66.4818 50.1761 65.091 49.5115C64.1212 48.9577 63.2931 48.1863 62.6721 47.258C62.051 46.3298 61.6539 45.27 61.5121 44.1622C61.1956 44.8185 60.7756 45.4195 60.268 45.9421C61.0859 46.4086 61.7327 47.1251 62.1133 47.9863C62.4939 48.8475 62.5884 49.808 62.3829 50.7269C61.914 52.2293 60.469 53.4063 58.1723 54.1145C56.4038 54.691 54.5585 54.9975 52.6986 55.0236ZM42.0573 44.8129C41.397 46.7938 41.3109 49.1001 42.6985 50.813C43.5013 51.7145 44.5135 52.4046 45.6459 52.8226C49.5566 54.4716 53.9222 54.6951 57.9809 53.4542C59.3972 53.014 61.1867 52.1527 61.6843 50.5833C61.8569 49.7933 61.7626 48.9684 61.4163 48.2376C61.07 47.5069 60.4911 46.9116 59.7704 46.545C58.0094 48.1787 55.8059 49.2571 53.4354 49.6455C53.1541 49.7203 52.8601 49.7342 52.573 49.6863C52.2858 49.6384 52.0122 49.5299 51.7703 49.368C51.5019 49.1034 51.337 48.7515 51.3055 48.3759C51.2739 48.0004 51.3777 47.6259 51.5981 47.3201C51.9859 46.8113 52.5102 46.423 53.1101 46.2005C55.0371 45.1742 57.2857 44.9309 59.3876 45.5211L59.6269 45.6168L59.7609 45.4732C60.1843 45.1075 60.5265 44.6571 60.7655 44.1511C61.0045 43.6452 61.1349 43.0948 61.1484 42.5354C61.0527 41.1574 59.8182 40.2196 58.5072 39.6646C58.4594 39.7794 58.4116 39.8942 58.3541 40.0091C57.2824 42.2483 55.2058 44.1526 52.1627 45.6742C51.2079 46.2235 50.1416 46.5506 49.043 46.6311C48.4612 46.6499 47.8855 46.5081 47.379 46.2211C46.8726 45.9341 46.455 45.5131 46.1722 45.0043C46.0238 44.706 45.9391 44.3802 45.9234 44.0474C44.6537 44.3905 43.362 44.6463 42.0573 44.8129ZM25.9232 47.5689C27.5213 48.9565 30.0094 50.3537 31.9137 50.4398C32.3317 50.5006 32.7582 50.4256 33.1303 50.2257C33.5025 50.0259 33.8006 49.7118 33.9807 49.3297C34.0888 48.9543 34.1122 48.5596 34.0493 48.174C33.9864 47.7885 33.8388 47.4217 33.6171 47.1C33.2947 46.5269 32.9061 45.9938 32.4592 45.5115L32.3443 45.5689C30.2903 46.4865 28.135 47.1579 25.9232 47.5689ZM72.5552 28.7936C71.7035 29.5879 70.7849 30.3248 69.9045 31.0329C69.0241 31.741 68.2585 32.3631 67.5408 33.0233C64.67 35.6741 62.9666 38.2291 62.3829 40.8416C61.7704 43.6072 62.6508 47.3584 65.493 48.8608C66.7733 49.469 68.1819 49.7579 69.5983 49.7029C71.9541 49.7412 74.2985 49.3688 76.5265 48.6024C78.4606 48.0818 80.1691 46.9383 81.3878 45.3488C83.0146 42.9373 82.517 39.8177 81.5027 37.6932C80.4506 35.4118 78.5836 33.6061 76.2682 32.631C75.9573 32.5002 75.6375 32.3914 75.3112 32.3056C75.4548 32.7171 75.5887 33.119 75.694 33.5305C76.3798 35.7453 76.2055 38.1372 75.206 40.2292C74.6727 41.2918 73.8177 42.1591 72.7626 42.7072C71.7075 43.2554 70.5064 43.4565 69.3303 43.2818C68.1808 42.9851 67.1635 42.3123 66.4404 41.3708C65.7173 40.4292 65.3299 39.2728 65.3398 38.0856C65.3784 36.9157 65.714 35.7749 66.315 34.7705C66.916 33.766 67.7626 32.931 68.7753 32.3439C70.3651 31.4182 72.2095 31.0258 74.0385 31.2243C73.6104 30.3754 73.1144 29.5626 72.5552 28.7936ZM57.2441 45.9517C55.916 46.0044 54.6129 46.3301 53.4163 46.9086C52.9548 47.0774 52.5479 47.3685 52.2392 47.7508C52.1219 47.8956 52.0579 48.0763 52.0579 48.2627C52.0579 48.4491 52.1219 48.6299 52.2392 48.7747C52.5607 48.9419 52.934 48.9796 53.2823 48.88C55.3861 48.5282 57.3526 47.6046 58.9666 46.2101C58.4162 46.0338 57.8411 45.9466 57.2632 45.9517H57.2441ZM11.0331 29.4444C10.438 31.5653 10.2433 33.7785 10.459 35.9707C10.6232 37.8081 11.1881 39.5871 12.1139 41.1825C13.0398 42.778 14.3041 44.1511 15.8179 45.2053C18.2291 46.6599 21.0428 47.3038 23.8466 47.0426H24.2581C24.0186 46.7515 23.8191 46.4297 23.6648 46.0857C23.2688 44.9038 23.1413 43.6484 23.2916 42.411H22.794L21.8849 42.3344C19.2724 42.1048 15.9997 41.5497 13.8657 39.2722C13.7949 39.199 13.7554 39.1013 13.7554 38.9995C13.7554 38.8977 13.7949 38.7999 13.8657 38.7268C13.9013 38.6906 13.9438 38.6619 13.9906 38.6423C14.0374 38.6226 14.0877 38.6126 14.1384 38.6126C14.1892 38.6126 14.2394 38.6226 14.2863 38.6423C14.3331 38.6619 14.3755 38.6906 14.4112 38.7268C16.325 40.8129 19.4543 41.3296 21.9328 41.5402L22.8323 41.6167L23.3395 41.6646C23.3395 41.5784 23.3395 41.4923 23.3395 41.4158L23.3873 40.9277C23.4447 40.2866 23.483 39.6359 23.5117 39.0138C22.3333 38.9016 21.2338 38.3722 20.4112 37.521C19.1959 36.1908 18.861 34.1526 19.4064 31.4635C19.5883 30.5698 19.8444 29.6927 20.172 28.8415C19.325 29.3391 18.4495 29.7864 17.5499 30.1812C16.2538 30.8353 14.8079 31.1357 13.3585 31.052C12.9449 31.0222 12.542 30.9074 12.1748 30.7148C11.8076 30.5221 11.4841 30.2558 11.2245 29.9324C11.1492 29.7766 11.0914 29.6129 11.0523 29.4444H11.0331ZM24.0667 42.4397C23.9265 43.557 24.0377 44.6915 24.3921 45.7603C24.5899 46.1848 24.8622 46.5705 25.1959 46.8991C27.4837 46.5272 29.7131 45.8581 31.8276 44.9086C29.7606 43.1383 26.9472 42.7172 24.0859 42.4397H24.0667ZM46.5646 43.856C46.564 44.1383 46.6295 44.4169 46.7559 44.6694C46.9886 45.0475 47.3178 45.3567 47.7097 45.5653C48.1016 45.7739 48.5421 45.8742 48.9856 45.856C49.959 45.7862 50.9041 45.4984 51.7512 45.0139C54.622 43.5689 56.6029 41.7794 57.5981 39.7028L57.713 39.454L57.4546 39.387L56.756 39.2531C54.501 40.7122 52.0906 41.9157 49.5694 42.8416C48.555 43.234 47.5598 43.5689 46.5837 43.856H46.5646ZM24.1337 41.6646C27.2629 41.9517 30.3539 42.4397 32.6218 44.5354C33.0812 44.3249 33.5788 44.0952 34.0477 43.8368L33.8754 43.7316C32.6314 42.9756 31.5309 41.4445 32.086 39.9038C32.3295 39.2769 32.7086 38.7116 33.196 38.2483C35.3339 36.1868 37.8529 34.5616 40.6123 33.4635V33.3009C40.5346 32.8716 40.4226 32.4491 40.2774 32.0377C38.9975 32.8794 37.5194 33.371 35.9903 33.4635C35.5163 33.4611 35.0442 33.4033 34.5836 33.2913C32.1912 35.7889 29.4544 38.2004 25.9711 38.8607C25.4544 38.9637 24.9284 39.0118 24.4017 39.0043C24.4017 39.655 24.3347 40.3057 24.2773 40.9182L24.2294 41.4062L24.1337 41.6646ZM35.7893 43.7699C37.4351 44.2101 39.148 44.3431 40.842 44.1622L41.464 44.1048C41.68 43.5433 41.9392 42.9994 42.2392 42.478C43.0389 41.1671 43.9379 39.9195 44.9282 38.7459C45.8614 37.6435 46.7152 36.4763 47.4832 35.253C48.152 34.1184 48.6639 32.8984 49.0048 31.6262C47.9808 31.8367 46.9856 32.1142 46.1339 32.3631H45.9521C44.4375 32.7797 42.9485 33.2846 41.4927 33.875C41.5842 35.2817 41.3756 36.6917 40.8806 38.0116C40.3857 39.3314 39.6158 40.531 38.6219 41.5306C37.7776 42.3875 36.833 43.1394 35.8085 43.7699H35.7893ZM49.8469 31.4635C49.4905 32.9345 48.9164 34.344 48.1435 35.6454C47.3635 36.9051 46.4903 38.1047 45.5311 39.2339C44.569 40.3767 43.6926 41.5889 42.909 42.8608C42.6999 43.2263 42.5114 43.6033 42.3444 43.99C43.5361 43.8161 44.7155 43.5668 45.8756 43.2435C46.2795 41.9385 47.1659 40.8365 48.354 40.1622C50.8142 38.6592 53.7176 38.0508 56.5742 38.4397C57.1579 38.0473 57.713 37.6358 58.2297 37.2148C58.329 36.3539 58.221 35.4817 57.9147 34.671C57.6084 33.8603 57.1127 33.1346 56.469 32.5545C54.7082 31.0808 52.2488 31.0616 49.866 31.4635H49.8469ZM40.6889 34.2387C38.122 35.3076 35.7808 36.8532 33.7893 38.7937C33.3795 39.1791 33.0538 39.645 32.8324 40.1622C32.4496 41.2722 33.2726 42.478 34.2965 43.1C34.488 43.2166 34.6861 43.322 34.8898 43.4158C36.0547 42.762 37.1238 41.9505 38.0669 41.0043C38.9429 40.1146 39.6288 39.0561 40.0829 37.893C40.5369 36.7299 40.7496 35.4866 40.708 34.2387H40.6889ZM54.8804 39.1C52.7224 39.1003 50.6064 39.6964 48.7655 40.8225C47.902 41.3356 47.2044 42.0864 46.7559 42.9852C47.5789 42.7364 48.4306 42.4493 49.2918 42.1143C51.462 41.3163 53.5512 40.3134 55.5311 39.1191L54.8804 39.1ZM73.1198 32.0473C71.7366 32.0529 70.3807 32.4332 69.1963 33.1478C68.3027 33.6603 67.5533 34.3906 67.0179 35.2707C66.4824 36.1508 66.1784 37.1521 66.1341 38.1813C66.1235 39.1891 66.4489 40.1717 67.0589 40.974C67.6688 41.7763 68.5287 42.3526 69.5026 42.612C70.516 42.7421 71.5448 42.5554 72.4478 42.0773C73.3508 41.5993 74.0836 40.8534 74.5457 39.9421C75.4544 38.0169 75.6047 35.82 74.9667 33.7889C74.8194 33.2419 74.6372 32.7049 74.4213 32.1812C73.9982 32.1014 73.5693 32.0565 73.1389 32.0473H73.1198ZM58.7082 38.966C59.8794 39.3604 60.8728 40.1572 61.5121 41.2148C61.5121 41.033 61.5695 40.8512 61.6078 40.6694C62.2298 37.9038 63.9905 35.2148 67.0049 32.4492C67.7322 31.7793 68.5456 31.1286 69.3973 30.43C70.249 29.7315 71.2346 28.9468 72.0863 28.1716C71.5376 27.4422 70.9465 26.7456 70.316 26.0855C65.6174 21.1189 57.5694 17.2146 50.2201 19.6931C49.7897 19.8307 49.368 19.9936 48.9569 20.1811C52.6927 20.3773 56.3624 21.2461 59.7896 22.7457C61.4874 23.363 62.9339 24.5235 63.9044 26.0472C64.9858 28.0951 64.5169 30.9372 62.6412 33.6454C61.6173 35.1213 60.3971 36.4509 59.0144 37.5975C58.9612 38.0616 58.8652 38.5197 58.7273 38.966H58.7082ZM57.646 38.6406L57.9713 38.7172C57.9713 38.5928 58.0383 38.4588 58.067 38.3248L57.646 38.6406ZM24.3443 38.2004C24.8159 38.2005 25.2867 38.1589 25.751 38.076C28.9472 37.4731 31.4927 35.2913 33.751 32.9755C33.2486 32.7478 32.7965 32.4225 32.4209 32.0186C31.8005 31.275 31.4097 30.3672 31.2958 29.4056C31.182 28.444 31.3501 27.4701 31.7797 26.6022C32.1285 25.8611 32.601 25.1848 33.1769 24.6022C31.1392 23.4696 28.77 23.0838 26.4782 23.5113C25.3805 24.7717 24.1626 25.9223 22.8419 26.9467C23.192 27.8404 23.4517 28.7669 23.617 29.7123C24.1719 32.5064 24.4222 35.3524 24.3634 38.2004H24.3443ZM21.349 28.0185C20.8248 29.1356 20.436 30.3115 20.1911 31.5209C19.7031 33.9516 19.971 35.7602 21.0141 36.899C21.691 37.5985 22.5917 38.0387 23.5596 38.143C23.6191 35.3669 23.385 32.5923 22.861 29.8654C22.7119 29.0376 22.491 28.2243 22.2007 27.4348C21.9519 27.6357 21.6648 27.8367 21.349 28.0185ZM52.2584 30.4587C53.9535 30.3845 55.6195 30.9172 56.957 31.9611C57.6019 32.5364 58.1184 33.241 58.4729 34.0291C58.8274 34.8172 59.0119 35.6712 59.0144 36.5353C60.1303 35.5481 61.1231 34.43 61.9714 33.2052C63.6748 30.7362 64.1245 28.2003 63.1771 26.4013C62.2806 25.0408 60.968 24.0069 59.4355 23.4539C56.0537 21.9776 52.4319 21.1281 48.7464 20.9467C49.3186 22.11 49.7399 23.3417 50 24.6118C50.3923 26.6055 50.3923 28.6565 50 30.6501C50.7562 30.527 51.5209 30.463 52.2871 30.4587H52.2584ZM40.909 31.5975C41.094 32.0945 41.2349 32.6069 41.3301 33.1286C42.755 32.5564 44.212 32.0676 45.6937 31.6645H45.8756C46.8899 31.387 48.0287 31.0712 49.1962 30.8415C49.9359 27.4928 49.4646 23.9903 47.866 20.9563H47.4545C46.4975 21.4907 45.5854 22.102 44.7272 22.784C42.6553 24.4913 40.7343 26.3739 38.9855 28.4109C39.6179 29.1822 40.1545 30.0273 40.5836 30.9276C42.6018 29.7287 44.1613 27.8897 45.0143 25.7027C45.051 25.6068 45.123 25.5286 45.2155 25.4841C45.3081 25.4396 45.4141 25.4322 45.5119 25.4635C45.5598 25.4796 45.604 25.5051 45.642 25.5384C45.6799 25.5718 45.7109 25.6123 45.7332 25.6577C45.7554 25.703 45.7685 25.7524 45.7715 25.8028C45.7746 25.8532 45.7677 25.9038 45.7511 25.9515C44.8333 28.3136 43.1482 30.2987 40.9664 31.5879L40.909 31.5975ZM35.1673 32.6023C35.4244 32.6364 35.6832 32.6556 35.9424 32.6597C37.3721 32.5592 38.7508 32.0876 39.9425 31.2913C39.5526 30.4526 39.0609 29.6651 38.4783 28.9468L38.2391 29.2243C37.5788 29.9515 36.9281 30.6884 36.2678 31.4061L36.0381 31.6645L35.1673 32.6023ZM33.885 24.9467C33.302 25.4924 32.8251 26.1413 32.4783 26.8606C32.1102 27.5862 31.9612 28.4033 32.0496 29.2122C32.1379 30.021 32.4598 30.7867 32.9759 31.4157C33.3489 31.8082 33.8073 32.1095 34.3156 32.2961C34.708 31.8846 35.0908 31.4635 35.464 31.0616L35.6936 30.8032C36.3539 30.0855 37.0047 29.3582 37.6075 28.631L37.9329 28.2673C37.305 27.58 36.6269 26.9403 35.9042 26.3534C35.2773 25.849 34.6118 25.3947 33.9137 24.9946L33.885 24.9467ZM17.9901 24.1333C16.2177 24.2039 14.5115 24.8262 13.1097 25.9132C12.1528 26.6692 11.0906 28.2386 11.8848 29.3391C12.0836 29.5703 12.3265 29.7596 12.5992 29.896C12.8719 30.0324 13.1691 30.1131 13.4734 30.1334C14.7976 30.2045 16.1174 29.9273 17.3011 29.3295C18.5163 28.7891 19.6845 28.1489 20.794 27.4156C21.0293 26.9461 21.2946 26.4922 21.5883 26.0568C21.1579 25.3324 20.5123 24.7603 19.7414 24.4204C19.1886 24.2276 18.6032 24.1463 18.0188 24.1812L17.9901 24.1333ZM34.4975 24.4108C35.1679 24.8162 35.8076 25.2704 36.4114 25.7697C37.1402 26.3563 37.8247 26.996 38.4592 27.6836C40.2063 25.6421 42.1274 23.7562 44.2009 22.0472C44.7559 21.607 45.3205 21.2051 45.8851 20.8414C42.4332 20.8508 39.0361 21.705 35.9903 23.3295C35.4725 23.6656 34.9829 24.0433 34.5262 24.4587L34.4975 24.4108ZM54.9378 18.1046C61.0623 18.1046 67.0432 21.4634 70.871 25.5018C71.4963 26.1631 72.0872 26.8562 72.6413 27.5783C74.6318 25.6644 76.0672 23.3965 75.7227 20.4969C75.2825 16.8605 72.1916 14.382 66.2777 12.9083C60.3318 11.552 54.1848 11.3183 48.1531 12.2193C46.0187 12.4982 43.9054 12.9202 41.8277 13.4825C44.4312 15.0014 46.6049 17.1586 48.1435 19.7505C48.7467 19.4618 49.3667 19.2093 50 18.9945C51.5992 18.4474 53.2764 18.163 54.9665 18.1524L54.9378 18.1046ZM22.4782 26.1333C23.3065 25.4889 24.0898 24.7887 24.8227 24.0376C23.9113 24.5849 23.1229 25.3147 22.5069 26.1812L22.4782 26.1333ZM18.0093 23.3678C18.6941 23.3584 19.3739 23.4853 20.0093 23.741C20.838 24.0969 21.546 24.6852 22.0476 25.4348C22.7438 24.582 23.6025 23.8761 24.5739 23.3582C25.0456 23.1127 25.5431 22.9201 26.0572 22.784C26.7936 21.9112 27.4713 20.9905 28.0859 20.028C28.4813 19.4007 28.8024 18.7295 29.0429 18.028L27.0237 18.8127C23.061 20.4664 18.863 21.4868 14.5834 21.8366C13.8624 22.8902 13.2226 23.9971 12.6695 25.1477L12.5547 25.3869L12.6599 25.3008C14.2115 24.1258 16.0923 23.4665 18.038 23.4156L18.0093 23.3678ZM28.2199 22.4969C30.1628 22.5517 32.0649 23.0666 33.7702 23.9993C34.3684 23.507 35.0088 23.0683 35.6841 22.6883C38.8647 20.9904 42.4137 20.0999 46.0191 20.095C46.4497 20.095 46.8708 20.095 47.3014 20.095L47.4258 20.028C45.8218 17.3913 43.5333 15.2385 40.8037 13.7983C37.196 14.8509 33.7223 16.2194 30.1242 17.6261L29.9807 17.6835C29.7291 18.6623 29.3255 19.5955 28.7845 20.4491C28.3156 21.1764 27.8275 21.8845 27.2821 22.5639C27.6036 22.5389 27.9263 22.5325 28.2486 22.5448L28.2199 22.4969ZM18.861 16.0184C16.2581 17.0998 13.6934 18.2959 11.2054 19.5878C10.7556 19.8271 10.1527 20.296 10.3346 20.65C10.5164 21.0041 10.8705 20.9467 11.1671 20.985C12.1593 21.0803 13.1567 21.1091 14.1528 21.0711C15.5004 19.1981 17.0936 17.5148 18.8897 16.0663L18.861 16.0184ZM21.9232 14.8127C19.2834 16.4239 16.9823 18.5333 15.148 21.0232C19.1367 20.6152 23.0442 19.6254 26.7462 18.0854L29.263 17.1285C29.3741 16.6436 29.3537 16.1378 29.204 15.6634C29.0543 15.189 28.7806 14.7632 28.4113 14.4299C26.9759 13.205 24.5835 13.8557 22.9567 14.4299L21.9232 14.8127ZM26.2677 12.8988C27.2289 12.8607 28.1711 13.1736 28.9185 13.7792C29.3405 14.1403 29.6669 14.6 29.8689 15.1174C30.0709 15.6349 30.1421 16.1941 30.0764 16.7457C33.3204 15.4634 36.4783 14.2385 39.732 13.2433L39.2535 13.0519C34.9464 11.4151 30.1974 11.3643 25.8562 12.9083L26.2677 12.8988Z" fill="#263238"/>
</svg>
