<svg width="40" height="40" viewBox="0 0 40 40" fill="none" xmlns="http://www.w3.org/2000/svg">
<path d="M28.6357 4.56626C27.5633 3.5563 26.19 3.07124 24.8062 3.07124C23.2485 3.07124 21.6764 3.68587 20.5038 4.85896L20 5.36278L19.4961 4.85876C18.3235 3.68616 16.7514 3.07124 15.1937 3.07124C13.8096 3.07124 12.437 3.5563 11.3642 4.56626C9.00507 6.78759 8.96294 10.502 11.2379 12.777L20 21.539L28.7621 12.777C31.0371 10.5019 30.9949 6.78749 28.6357 4.56626Z" fill="#154F9C"/>
<path d="M16.9288 36.9289L16.9221 28.2473C16.9221 24.0545 14.7744 21.5964 11.9298 20.6705C11.1359 20.4302 10.4246 19.7989 9.76302 19.1371C8.56107 17.8853 7.27612 16.1733 5.61161 16.1945L5.61007 16.1882C5.0671 16.1953 4.52422 16.3915 4.05349 16.8623C2.94956 17.9662 3.39557 19.6528 4.34763 20.6049L7.44021 23.6972C7.72877 23.9857 7.89104 24.3772 7.89104 24.7853C7.89104 25.1935 7.72877 25.5849 7.44021 25.8736L3.25947 21.693C2.53288 20.9665 2.03915 19.9844 1.90459 18.9986C1.73703 17.7706 2.1135 16.6255 2.96485 15.7742C3.60247 15.1366 4.38475 14.7766 5.23802 14.6856L4.61358 12.1635C4.56626 2.80383 0.000384746 3.9473 0.000384746 6.1491L0 22.5805C0 23.6011 0.395326 24.5629 1.11365 25.2888C8.75893 33.0048 7.69491 30.519 7.69491 36.9289H16.9288Z" fill="#154F9C"/>
<path d="M39.9996 6.1492C39.9996 3.94749 35.4337 2.80393 35.3864 12.1637L34.762 14.6858C35.6152 14.7768 36.3975 15.1367 37.0351 15.7744C37.8865 16.6257 38.2631 17.7708 38.0954 18.9988C37.9609 19.9846 37.4672 20.9667 36.7405 21.6932L32.5598 25.8738C32.2712 25.585 32.109 25.1937 32.109 24.7855C32.109 24.3775 32.2712 23.9859 32.5598 23.6974L35.6524 20.6051C36.6044 19.653 37.0504 17.9663 35.9465 16.8624C35.4758 16.3917 34.9328 16.1955 34.3899 16.1884L34.3884 16.1947C32.7239 16.1735 31.4389 17.8855 30.237 19.1373C29.5753 19.7991 28.864 20.4303 28.0702 20.6707C25.2256 21.5965 23.0779 24.0547 23.0779 28.2474L23.0712 36.929H32.3051C32.3051 30.5193 31.2411 33.005 38.8863 25.2889C39.6048 24.5629 40 23.6011 40 22.5806L39.9996 6.1492Z" fill="#154F9C"/>
</svg>
