<svg width="48" height="48" viewBox="0 0 48 48" fill="none" xmlns="http://www.w3.org/2000/svg">
<circle cx="24" cy="24" r="24" fill="#F1FEF2"/>
<path d="M33.1741 32.4367C32.6145 30.7715 30.3844 29.7291 28.7945 29.0304C28.1716 28.7575 26.4472 28.2947 26.2399 27.5104C26.1657 27.2278 26.1757 26.9614 26.2366 26.7061C26.1407 26.7244 26.0435 26.7353 25.9429 26.7353H24.9069C24.0798 26.7353 23.4078 26.0624 23.4078 25.2359C23.4078 24.4099 24.0801 23.7384 24.9069 23.7384H25.9429C26.2852 23.7384 26.6097 23.8543 26.8714 24.061C27.2551 24.0098 27.6251 23.9279 27.9702 23.8204C28.4233 22.8711 28.7767 21.7359 28.8559 20.7588C29.194 16.5781 26.6311 14.1322 22.9563 14.555C20.2845 14.8626 18.6884 16.8548 18.5159 19.4197C18.3414 22.034 19.3108 23.9648 20.3404 25.3812C20.7913 26.0004 21.265 26.3985 21.1922 27.1448C21.1077 28.0271 20.1642 28.273 19.4894 28.5442C18.6898 28.8653 17.8286 29.3526 17.4219 29.5779C16.0208 30.3517 14.4831 31.2835 14.1374 32.5581C13.372 35.383 15.9569 36.2387 18.0908 36.6338C19.9222 36.9716 21.9873 36.9983 23.6859 36.9983C26.7583 36.9983 32.2831 36.8752 33.1741 34.5657C33.4274 33.9103 33.3188 32.866 33.1741 32.4367Z" fill="#4E7E76"/>
<path d="M26.5942 24.8195C26.4536 24.6053 26.2133 24.4631 25.9391 24.4631H24.9031C24.4708 24.4631 24.1222 24.8123 24.1222 25.2424C24.1222 25.6741 24.4708 26.0239 24.9031 26.0239H25.9391C26.2417 26.0239 26.4984 25.8513 26.6278 25.6019C28.0722 25.4882 29.3285 25.047 30.2103 24.3956C30.4129 24.5261 30.6523 24.6025 30.9107 24.6025H30.9757C31.6958 24.6025 32.2782 24.0197 32.2782 23.2987V20.6961C32.2782 20.1777 31.9742 19.7304 31.5358 19.5226C31.3447 15.3433 27.885 12 23.6588 12C19.4325 12 15.9723 15.3433 15.782 19.5226C15.3427 19.7307 15.0391 20.1777 15.0391 20.6961V23.2987C15.0391 24.0197 15.6219 24.6025 16.3404 24.6025H16.4062C17.1252 24.6025 17.7084 24.0197 17.7084 23.2987V20.6961C17.7084 20.1852 17.413 19.7446 16.9838 19.5315C17.1697 16.0101 20.0918 13.2032 23.6588 13.2032C27.2243 13.2032 30.1478 16.0101 30.3329 19.5315C29.9042 19.7448 29.6091 20.1852 29.6091 20.6961V23.2987C29.6091 23.4715 29.6427 23.6324 29.7019 23.7827C28.9429 24.3258 27.838 24.7128 26.5942 24.8195Z" fill="#4E7E76"/>
</svg>
