<svg width="48" height="48" viewBox="0 0 48 48" fill="none" xmlns="http://www.w3.org/2000/svg">
<circle cx="24" cy="24" r="24" fill="#F1FEF2"/>
<path d="M27.7143 17.5005H31.9088C31.9455 17.5005 31.9814 17.4896 32.012 17.4692C32.0425 17.4488 32.0663 17.4198 32.0804 17.3858C32.0944 17.3519 32.0981 17.3146 32.0909 17.2785C32.0838 17.2425 32.0661 17.2094 32.0401 17.1835L27.1027 12.2461C27.0768 12.2201 27.0437 12.2024 27.0077 12.1952C26.9716 12.1881 26.9343 12.1917 26.9004 12.2058C26.8664 12.2198 26.8374 12.2436 26.817 12.2742C26.7966 12.3047 26.7857 12.3406 26.7857 12.3774V16.5719C26.7857 16.8182 26.8835 17.0544 27.0577 17.2285C27.2318 17.4027 27.468 17.5005 27.7143 17.5005Z" fill="#4E7E76"/>
<path d="M32.3571 19.3571H27.7143C26.9755 19.3571 26.2669 19.0636 25.7445 18.5412C25.2221 18.0188 24.9286 17.3102 24.9286 16.5714V11.9309C24.9289 11.8092 24.9053 11.6886 24.859 11.576C24.8127 11.4634 24.7446 11.3611 24.6587 11.2748C24.5728 11.1886 24.4707 11.1201 24.3583 11.0734C24.2459 11.0266 24.1254 11.0025 24.0036 11.0024C21.8286 11.0012 16.5714 11 16.5714 11C16.0789 11 15.6065 11.1957 15.2582 11.5439C14.9099 11.8922 14.7143 12.3646 14.7143 12.8571V35.1429C14.7143 35.6354 14.9099 36.1078 15.2582 36.4561C15.6065 36.8043 16.0789 37 16.5714 37H31.4286C31.9211 37 32.3935 36.8043 32.7418 36.4561C33.09 36.1078 33.2857 35.6354 33.2857 35.1429V20.2857C33.2857 20.0394 33.1879 19.8033 33.0137 19.6291C32.8396 19.455 32.6034 19.3571 32.3571 19.3571Z" fill="#4E7E76"/>
<rect x="19" y="23" width="10" height="2" fill="#E8EDF5"/>
<rect x="19" y="26" width="10" height="2" fill="#E8EDF5"/>
</svg>
