<svg width="48" height="48" viewBox="0 0 48 48" fill="none" xmlns="http://www.w3.org/2000/svg">
<circle cx="24" cy="24" r="24" fill="#F1FEF2"/>
<rect x="14" y="12" width="20" height="24" rx="2" fill="#4E7E76"/>
<path d="M24.9803 23.6429C24.8699 23.6429 24.7803 23.5533 24.7803 23.4429L24.7803 20.2C24.7803 20.0895 24.6908 20 24.5803 20L23.8429 20C23.7324 20 23.6429 20.0895 23.6429 20.2L23.6429 23.4429C23.6429 23.5533 23.5533 23.6429 23.4429 23.6429L21.8214 23.6429L20.2 23.6429C20.0895 23.6429 20 23.7324 20 23.8429L20 24.5803C20 24.6908 20.0895 24.7803 20.2 24.7803L23.4429 24.7803C23.5533 24.7803 23.6429 24.8699 23.6429 24.9803L23.6429 28.3C23.6429 28.4105 23.7324 28.5 23.8429 28.5H24.5803C24.6908 28.5 24.7803 28.4105 24.7803 28.3L24.7803 24.9803C24.7803 24.8699 24.8699 24.7803 24.9803 24.7803L28.3 24.7803C28.4105 24.7803 28.5 24.6908 28.5 24.5803V23.8429C28.5 23.7324 28.4105 23.6429 28.3 23.6429L26.6786 23.6429L24.9803 23.6429Z" fill="#E8EDF5"/>
</svg>
