<svg width="104" height="24" viewBox="0 0 104 24" fill="none" xmlns="http://www.w3.org/2000/svg">
<path d="M71.6526 13.116C71.4446 13.1286 71.2363 13.0991 71.0401 13.0292C70.8438 12.9594 70.6638 12.8506 70.5107 12.7094C70.3576 12.5682 70.2347 12.3975 70.1494 12.2077C70.064 12.0178 70.0179 11.8127 70.014 11.6046C70.014 11.2455 70.014 10.1434 71.6526 10.1434C71.9537 10.13 72.2527 10.2 72.5165 10.3457C72.7804 10.4914 72.9987 10.7072 73.1475 10.9691L74.7933 9.32481C74.4165 8.8578 73.9373 8.4835 73.3928 8.23078C72.8482 7.97806 72.2529 7.85367 71.6526 7.86721C69.3061 7.86721 67.7321 9.3679 67.7321 11.6046C67.7303 12.125 67.8381 12.6399 68.0483 13.116H66.4313C66.1244 13.116 65.8301 12.9942 65.6131 12.7774C65.3961 12.5606 65.2742 12.2666 65.2742 11.96V8.31239H62.9923V15.884C62.9923 16.0745 62.9166 16.2571 62.7818 16.3918C62.647 16.5264 62.4642 16.6021 62.2736 16.6021H61.2279V18.8782H62.2736C63.0698 18.8782 63.8333 18.5625 64.3966 18.0004C64.9599 17.4383 65.2768 16.6758 65.2778 15.8804V15.1911C65.6489 15.3252 66.0403 15.3945 66.4349 15.3958H74.9694V13.116H71.6526Z" fill="#333333"/>
<path d="M24.5862 3.92188H22.3044V15.3601H24.5862V3.92188Z" fill="#333333"/>
<path d="M57.8564 13.1181H49.9184V9.35201H47.6401V13.4304C47.6411 13.9519 47.8488 14.4518 48.2179 14.8206C48.587 15.1893 49.0874 15.3969 49.6093 15.3978H58.1762C58.6982 15.3969 59.1985 15.1893 59.5676 14.8206C59.9367 14.4518 60.1444 13.9519 60.1454 13.4304V8.31445H57.8564V13.1181Z" fill="#333333"/>
<path d="M39.3374 13.1181H35.6649V8.31445H33.3866V13.1181H29.7177V8.31445H27.4358V15.8861C27.4358 16.0765 27.3601 16.2592 27.2253 16.3938C27.0905 16.5285 26.9077 16.6041 26.7171 16.6041H25.6678V18.8803H26.7135C27.509 18.8803 28.2721 18.5651 28.8353 18.0038C29.3984 17.4424 29.7158 16.6809 29.7177 15.8861V15.3978H33.6992C33.9852 15.3973 34.2674 15.3336 34.5257 15.2112C34.7852 15.334 35.0687 15.3977 35.3558 15.3978H39.6464C39.905 15.3978 40.1611 15.347 40.4 15.2481C40.6389 15.1492 40.856 15.0043 41.0389 14.8216C41.2217 14.6389 41.3668 14.422 41.4658 14.1833C41.5647 13.9446 41.6157 13.6888 41.6157 13.4304V8.31445H39.3374V13.1181Z" fill="#333333"/>
<path d="M17.9663 13.1181H14.0135C14.0135 13.1181 12.9354 13.0678 10.7794 12.0805L9.80911 14.1556C10.8236 14.6339 11.8861 15.0034 12.9786 15.2578C13.2021 15.5611 13.3466 15.9152 13.399 16.2882C12.9354 16.7083 10.4775 16.6185 9.14791 16.5718L8.06987 16.5359C7.18947 16.5144 6.63249 16.3026 6.39172 15.9076C5.89223 15.0568 6.55702 13.2114 6.95949 12.4539L5.94973 11.919L4.94356 11.384C4.7567 11.7431 3.14682 14.8844 4.4225 17.0565C4.87169 17.8284 5.85989 18.7582 8.01597 18.8121L9.06886 18.848C9.73006 18.8731 10.3805 18.8947 11.0057 18.8947C13.0073 18.8947 14.707 18.6505 15.4077 17.3904C15.5632 17.0844 15.6551 16.7501 15.678 16.4077C15.7008 16.0653 15.6541 15.7218 15.5407 15.3978H18.2717C18.794 15.3978 19.2949 15.1906 19.6642 14.8216C20.0335 14.4526 20.241 13.9522 20.241 13.4304V8.31445H17.9663V13.1181Z" fill="#333333"/>
<path d="M35.7969 16.6768H35.7825C35.2308 16.6768 34.7835 17.1228 34.7835 17.673C34.7835 18.2233 35.2308 18.6693 35.7825 18.6693H35.7969C36.3486 18.6693 36.7959 18.2233 36.7959 17.673C36.7959 17.1228 36.3486 16.6768 35.7969 16.6768Z" fill="#333333"/>
<path d="M53.9563 16.6768H53.942C53.3903 16.6768 52.943 17.1228 52.943 17.673C52.943 18.2233 53.3903 18.6693 53.942 18.6693H53.9563C54.5081 18.6693 54.9553 18.2233 54.9553 17.673C54.9553 17.1228 54.5081 16.6768 53.9563 16.6768Z" fill="#333333"/>
<path d="M33.2327 16.6768H33.2183C32.6666 16.6768 32.2193 17.1228 32.2193 17.673C32.2193 18.2233 32.6666 18.6693 33.2183 18.6693H33.2327C33.7844 18.6693 34.2317 18.2233 34.2317 17.673C34.2317 17.1228 33.7844 16.6768 33.2327 16.6768Z" fill="#333333"/>
<path d="M18.8151 16.6768H18.8007C18.249 16.6768 17.8017 17.1228 17.8017 17.673C17.8017 18.2233 18.249 18.6693 18.8007 18.6693H18.8151C19.3668 18.6693 19.8141 18.2233 19.8141 17.673C19.8141 17.1228 19.3668 16.6768 18.8151 16.6768Z" fill="#333333"/>
<path d="M1.01336 13.1191H0.998985C0.447261 13.1191 0 13.5652 0 14.1154C0 14.6656 0.447261 15.1117 0.998985 15.1117H1.01336C1.56508 15.1117 2.01234 14.6656 2.01234 14.1154C2.01234 13.5652 1.56508 13.1191 1.01336 13.1191Z" fill="#2B7A7E"/>
<path d="M11.286 19.8066H11.2716C10.7199 19.8066 10.2727 20.2527 10.2727 20.8029C10.2727 21.3531 10.7199 21.7992 11.2716 21.7992H11.286C11.8377 21.7992 12.285 21.3531 12.285 20.8029C12.285 20.2527 11.8377 19.8066 11.286 19.8066Z" fill="#333333"/>
<path d="M8.71982 19.8066H8.70544C8.15372 19.8066 7.70646 20.2527 7.70646 20.8029C7.70646 21.3531 8.15372 21.7992 8.70544 21.7992H8.71982C9.27154 21.7992 9.7188 21.3531 9.7188 20.8029C9.7188 20.2527 9.27154 19.8066 8.71982 19.8066Z" fill="#333333"/>
<path d="M41.695 4.58984H41.6806C41.1289 4.58984 40.6816 5.03589 40.6816 5.58611C40.6816 6.13634 41.1289 6.58238 41.6806 6.58238H41.695C42.2467 6.58238 42.694 6.13634 42.694 5.58611C42.694 5.03589 42.2467 4.58984 41.695 4.58984Z" fill="#333333"/>
<path d="M39.1278 4.58984H39.1134C38.5617 4.58984 38.1145 5.03589 38.1145 5.58611C38.1145 6.13634 38.5617 6.58238 39.1134 6.58238H39.1278C39.6795 6.58238 40.1268 6.13634 40.1268 5.58611C40.1268 5.03589 39.6795 4.58984 39.1278 4.58984Z" fill="#333333"/>
<path d="M40.4119 2.21777H40.3975C39.8458 2.21777 39.3985 2.66382 39.3985 3.21404C39.3985 3.76427 39.8458 4.21031 40.3975 4.21031H40.4119C40.9636 4.21031 41.4109 3.76427 41.4109 3.21404C41.4109 2.66382 40.9636 2.21777 40.4119 2.21777Z" fill="#333333"/>
<path d="M101.866 5.78877C97.9675 1.51648 97.3279 1.12156 97.3279 1.12156C97.3279 1.12156 94.1764 -1.52439 91.104 1.31184C89.2354 3.03871 85.4982 3.63827 85.4982 3.63827C85.4982 3.63827 80.4673 4.80148 80.3667 11.6587C80.2661 18.5159 82.9576 22.9928 90.5542 23.657C95.161 24.0519 97.4177 24.8669 100.792 20.81C101.188 20.0421 101.491 19.2298 101.694 18.3902C101.834 17.4388 103.131 15.1591 103.131 15.1591C103.131 15.1591 105.762 10.0682 101.866 5.78877ZM92.1641 21.0685C90.4536 21.0685 83.3026 19.2734 83.3026 13.2635C83.3026 8.80092 87.8878 4.4999 92.1641 4.4999C96.699 4.4999 100.285 7.59103 100.285 12.7034C100.296 17.324 96.6631 21.0685 92.1749 21.0685H92.1641Z" fill="url(#paint0_linear_0_233)"/>
<defs>
<linearGradient id="paint0_linear_0_233" x1="83.7158" y1="4.33476" x2="100.536" y2="21.1666" gradientUnits="userSpaceOnUse">
<stop stop-color="#85C48D"/>
<stop offset="0.31" stop-color="#6DC09C"/>
<stop offset="0.95" stop-color="#30B7C4"/>
<stop offset="1" stop-color="#2BB6C7"/>
</linearGradient>
</defs>
</svg>
