<svg width="48" height="48" viewBox="0 0 48 48" fill="none" xmlns="http://www.w3.org/2000/svg">
<circle cx="24" cy="24" r="24" fill="#F1FEF2"/>
<path d="M34.4497 17.6238C34.4196 16.9614 34.4196 16.3291 34.4196 15.6969C34.4196 15.185 34.0282 14.7936 33.5163 14.7936C29.7527 14.7936 26.8924 13.7097 24.5138 11.3913C24.1525 11.0601 23.6105 11.0601 23.2492 11.3913C20.8706 13.7097 18.0103 14.7936 14.2466 14.7936C13.7348 14.7936 13.3434 15.185 13.3434 15.6969C13.3434 16.3291 13.3434 16.9614 13.3133 17.6238C13.1928 23.9467 13.0122 32.6181 23.5804 36.2612L23.8815 36.3215L24.1826 36.2612C34.7207 32.6181 34.5702 23.9768 34.4497 17.6238ZM23.1589 26.3855C22.9782 26.5361 22.7675 26.6264 22.5266 26.6264H22.4965C22.2556 26.6264 22.0147 26.506 21.8642 26.3253L19.0641 23.2241L20.419 22.0197L22.6169 24.4585L27.4946 19.8218L28.729 21.1466L23.1589 26.3855Z" fill="#4E7E76"/>
</svg>
