<svg width="40" height="40" viewBox="0 0 40 40" fill="none" xmlns="http://www.w3.org/2000/svg">
<g clip-path="url(#clip0_0_115)">
<path d="M4.36922 39.4782C3.0241 37.4606 2.0349 37.0437 0.0305802 28.3576C-0.150821 27.5714 0.500412 26.8372 1.30695 26.93C5.38552 27.4015 8.95496 26.7239 11.9408 24.9156C5.10272 19.1283 3.84275 9.24603 4.99991 3.46634C5.20232 2.45511 6.52502 2.18035 7.11259 3.02947C10.7526 8.28934 21.0203 18.5132 28.2924 12.6535C30.8454 10.5613 33.2163 9.7111 35.3392 10.1266C37.4977 10.549 38.7558 12.0308 39.8203 13.8776C40.2366 14.5407 39.8968 15.4199 39.1414 15.6297C34.3867 16.9505 34.1939 17.826 32.4217 23.1936C29.1844 33.0007 25.2964 34.7979 17.4929 34.7091C14.9366 34.6799 12.7285 34.6549 10.9902 35.9295C9.37019 37.1099 7.77632 38.3972 6.07175 39.747C5.53505 40.1718 4.74913 40.0481 4.36922 39.4782ZM39.8103 13.8621C39.8123 13.8652 39.8144 13.8684 39.8164 13.8716C39.8143 13.8681 39.8121 13.865 39.8103 13.8621Z" fill="#154F9C"/>
<path d="M25.1117 11.7672C22.0977 12.7617 18.4494 10.9383 15.2714 8.36338C15.8378 6.00563 16.2026 3.79944 16.2979 1.13076C16.3323 0.168281 17.4526 -0.342643 18.2025 0.258904C21.9353 3.25492 24.4883 7.23138 25.1117 11.7672Z" fill="#154F9C"/>
</g>
<defs>
<clipPath id="clip0_0_115">
<rect width="40" height="40" fill="white"/>
</clipPath>
</defs>
</svg>
