<svg width="40" height="40" viewBox="0 0 40 40" fill="none" xmlns="http://www.w3.org/2000/svg">
<path d="M1.13286 35H5.11714C5.74137 35 6.25 34.4809 6.25 33.8438V18.6562C6.25 18.0191 5.74137 17.5 5.11714 17.5H1.13286C0.508631 17.5 0 18.0191 0 18.6562V33.8438C0 34.4809 0.508631 35 1.13286 35Z" fill="#154F9C"/>
<path d="M31.7119 15.816C33.0077 15.816 34.1405 15.536 35.1021 14.984C36.952 13.928 37.7262 12.112 38.0522 10.784C38.5004 8.96 39.9021 6.184 39.9184 6.152C40.0406 5.904 40.0243 5.608 39.8776 5.376C39.7228 5.136 39.462 5.016 39.1768 5C33.9204 5.072 31.117 7.288 29.6827 9.128C29.1856 9.784 28.7863 10.504 28.4848 11.288C28.3788 11.112 28.2729 10.936 28.1506 10.768C27.1238 9.44 25.1109 7.848 21.354 7.8C21.0525 7.776 20.7999 7.936 20.6532 8.176C20.4983 8.408 20.482 8.704 20.6124 8.952C20.6206 8.976 21.5822 10.888 21.8837 12.128C22.1201 13.096 22.6905 14.424 24.0596 15.208C24.7686 15.608 25.5999 15.816 26.537 15.816C26.9527 15.816 27.3927 15.768 27.841 15.688V24.232L26.7815 24.408C26.1459 25.448 24.9887 26.152 23.6603 26.152L17.263 25.848C16.8148 25.824 16.4644 25.448 16.4888 25.008C16.5133 24.568 16.8963 24.232 17.3445 24.248L23.701 24.552C23.7988 24.552 23.9048 24.544 24.0026 24.528C25.5836 24.28 25.8688 22.184 24.5567 21.28C24.0759 20.952 23.481 20.752 22.8454 20.752H19.0803C17.3852 20.752 16.6355 20.2 15.682 19.504C15.0627 19.048 14.3618 18.528 13.3594 18.152C11.2243 17.344 9.03209 17.776 7.5 18.336V32.224C10.5071 33.24 16.497 35 21.7778 35C28.1099 35 35.9822 29.104 38.2396 27.296C38.8427 26.816 39.1849 26.104 39.1849 25.344C39.1849 24.592 38.8508 23.896 38.2722 23.408C37.6936 22.928 36.9357 22.728 36.186 22.848L29.4708 23.96V15.56C30.2613 15.728 31.0111 15.816 31.7119 15.816Z" fill="#154F9C"/>
</svg>
