<svg width="48" height="48" viewBox="0 0 48 48" fill="none" xmlns="http://www.w3.org/2000/svg">
<circle cx="24" cy="24" r="24" fill="#F1FEF2"/>
<g clip-path="url(#clip0_0_134)">
<path d="M33.106 15.234H31.989V14.117C31.989 13.4468 31.5422 13 30.872 13C30.2018 13 29.755 13.4468 29.755 14.117V15.234H18.585V14.117C18.585 13.4468 18.1382 13 17.468 13C16.7978 13 16.351 13.4468 16.351 14.117V15.234H14.117C13.5585 15.234 13 15.6808 13 16.351V31.989C13 32.6592 13.5585 33.106 14.117 33.106H20.9307C20.1488 31.7656 19.702 30.2018 19.702 28.638C19.702 23.7232 23.7232 19.702 28.638 19.702C30.7603 19.702 32.6592 20.4839 34.223 21.7126V16.351C34.223 15.7925 33.6645 15.234 33.106 15.234Z" fill="#4E7E76"/>
<path d="M28.5503 21.5865C24.8642 21.5865 21.8483 24.6024 21.8483 28.2885C21.8483 31.9746 24.8642 34.9905 28.5503 34.9905C32.2364 34.9905 35.2523 31.9746 35.2523 28.2885C35.2523 24.6024 32.2364 21.5865 28.5503 21.5865Z" fill="#4E7E76"/>
<rect x="26.7269" y="25.5684" width="1.31412" height="4.59941" fill="#E8EDF5"/>
<rect x="26.7269" y="28.9053" width="4.59941" height="1.31412" fill="#E8EDF5"/>
</g>
<defs>
<clipPath id="clip0_0_134">
<rect width="22.34" height="22.34" fill="white" transform="translate(13 13)"/>
</clipPath>
</defs>
</svg>
